<svg width="15" height="10" viewBox="0 0 15 10" fill="none" xmlns="http://www.w3.org/2000/svg">
<path d="M14.3151 1.32506L13.4878 7.53407C13.4623 7.69825 13.3565 7.84907 13.1933 7.95404C13.03 8.05901 12.8224 8.10973 12.6151 8.09529C12.4077 8.08084 12.2173 8.00238 12.0848 7.87681C11.9523 7.75123 11.8883 7.58858 11.9066 7.4239L12.5322 2.729L1.66037 9.84333C1.49641 9.95062 1.28648 10.0027 1.07677 9.98808C0.867065 9.97347 0.674751 9.89337 0.542139 9.76542C0.409526 9.63746 0.347477 9.47213 0.369642 9.30578C0.391808 9.13944 0.496371 8.98571 0.66033 8.87842L11.5322 1.76409L5.61339 1.3517C5.50822 1.34584 5.40594 1.32342 5.31254 1.28576C5.21914 1.2481 5.13647 1.19595 5.06937 1.13236C5.00226 1.06877 4.95206 0.995001 4.92169 0.915367C4.89133 0.835734 4.8814 0.751828 4.8925 0.668545C4.9036 0.585262 4.93549 0.504269 4.98633 0.430295C5.03716 0.356319 5.10592 0.290842 5.18858 0.237684C5.27124 0.184525 5.36616 0.14475 5.46779 0.120679C5.56942 0.0966083 5.67572 0.088723 5.78051 0.0974839L13.6081 0.642865C13.8178 0.657498 14.01 0.737587 14.1426 0.865517C14.2752 0.993447 14.3373 1.15874 14.3151 1.32506Z" fill="#202020"/>
</svg>
