<svg width="59" height="84" viewBox="0 0 59 84" fill="none" xmlns="http://www.w3.org/2000/svg">
<path d="M32.0546 82.3057L57.7883 55.764C58.458 55.0489 58.8285 54.0911 58.8202 53.097C58.8118 52.1028 58.4252 51.1518 57.7436 50.4488C57.062 49.7458 56.1399 49.347 55.176 49.3384C54.2121 49.3298 53.2835 49.7119 52.5901 50.4026L33.1317 70.4719L33.1317 3.79167C33.1317 2.78605 32.7444 1.82163 32.055 1.11055C31.3655 0.399477 30.4305 -1.24096e-06 29.4555 -1.28358e-06C28.4805 -1.3262e-06 27.5454 0.399477 26.856 1.11055C26.1665 1.82163 25.7792 2.78605 25.7792 3.79167L25.7792 70.4719L6.32083 50.4026C5.9817 50.0405 5.57604 49.7516 5.12753 49.5529C4.67901 49.3542 4.19661 49.2496 3.70848 49.2452C3.22035 49.2408 2.73627 49.3368 2.28447 49.5274C1.83267 49.7181 1.42221 49.9996 1.07704 50.3556C0.731863 50.7116 0.458887 51.135 0.274042 51.601C0.0891968 52.0669 -0.003817 52.5662 0.000424926 53.0697C0.00466685 53.5731 0.106084 54.0707 0.298753 54.5333C0.491422 54.9959 0.771482 55.4143 1.1226 55.764L26.8564 82.3057C27.5458 83.0165 28.4807 83.4159 29.4555 83.4159C30.4303 83.4159 31.3652 83.0165 32.0546 82.3057Z" fill="#E8E3DF"/>
</svg>
