<svg width="16" height="17" viewBox="0 0 16 17" fill="none" xmlns="http://www.w3.org/2000/svg">
<path d="M14.7944 1.41456L15.1447 10.7736C15.1497 11.0217 15.0571 11.2635 14.887 11.4471C14.7168 11.6307 14.4827 11.7412 14.235 11.755C13.9873 11.7687 13.7459 11.6845 13.5627 11.5206C13.3796 11.3566 13.2693 11.126 13.2558 10.8784L12.9909 3.80165L1.68448 16.2098C1.51397 16.3969 1.27743 16.5099 1.0269 16.5238C0.776378 16.5377 0.532384 16.4514 0.348599 16.2839C0.164814 16.1165 0.056292 15.8815 0.0469073 15.6308C0.0375223 15.38 0.128043 15.1341 0.298556 14.9469L11.605 2.53878L4.53412 2.93118C4.40879 2.94032 4.28335 2.9244 4.16511 2.88434C4.04687 2.84428 3.9382 2.78089 3.84545 2.69786C3.7527 2.61483 3.67772 2.51384 3.62488 2.40076C3.57205 2.28768 3.54241 2.16479 3.53772 2.03925C3.53302 1.91372 3.55334 1.78805 3.59751 1.66959C3.64168 1.55113 3.70881 1.44225 3.79498 1.34929C3.88114 1.25634 3.98462 1.18117 4.09938 1.12818C4.21414 1.07519 4.33787 1.04544 4.46336 1.04066L13.8145 0.521709C14.065 0.507846 14.309 0.594118 14.4927 0.761551C14.6765 0.928985 14.785 1.16387 14.7944 1.41456Z" fill="#636363"/>
</svg>
