<svg width="85" height="61" viewBox="0 0 85 61" fill="none" xmlns="http://www.w3.org/2000/svg">
<path d="M83.0967 27.8194L56.5551 1.27775C55.8399 0.587064 54.8822 0.204883 53.888 0.213522C52.8938 0.222161 51.9428 0.620928 51.2398 1.32393C50.5368 2.02694 50.1381 2.97794 50.1294 3.9721C50.1208 4.96626 50.503 5.92404 51.1936 6.63916L71.2629 26.7085L4.58268 26.7085C3.57707 26.7085 2.61264 27.1079 1.90157 27.819C1.19049 28.5301 0.791016 29.4945 0.791016 30.5001C0.791016 31.5057 1.19049 32.4702 1.90157 33.1812C2.61264 33.8923 3.57707 34.2918 4.58268 34.2918L71.2629 34.2918L51.1936 54.3611C50.8315 54.7108 50.5426 55.1292 50.3439 55.5918C50.1452 56.0544 50.0406 56.552 50.0362 57.0554C50.0319 57.5589 50.1278 58.0582 50.3184 58.5242C50.5091 58.9901 50.7906 59.4135 51.1466 59.7695C51.5027 60.1255 51.926 60.407 52.392 60.5977C52.858 60.7883 53.3573 60.8843 53.8607 60.8799C54.3642 60.8755 54.8617 60.7709 55.3243 60.5722C55.7869 60.3735 56.2053 60.0846 56.5551 59.7225L83.0967 33.1808C83.8076 32.4698 84.2069 31.5055 84.2069 30.5001C84.2069 29.4947 83.8076 28.5305 83.0967 27.8194Z" fill="#E8E3DF"/>
</svg>
