<svg width="59" height="70" viewBox="0 0 59 70" fill="none" xmlns="http://www.w3.org/2000/svg">
<path d="M48.6481 0.097143L11.5821 6.01591C10.6032 6.18972 9.73171 6.74104 9.15537 7.55114C8.57902 8.36125 8.34392 9.36531 8.50069 10.3471C8.65746 11.3288 9.19356 12.2097 9.99352 12.8001C10.7935 13.3904 11.7933 13.6429 12.7776 13.5032L40.8048 9.02781L1.67946 63.0228C1.0894 63.8371 0.846996 64.8525 1.00556 65.8455C1.16413 66.8385 1.71069 67.7279 2.52499 68.318C3.3393 68.908 4.35465 69.1504 5.34768 68.9918C6.34071 68.8333 7.23008 68.2867 7.82014 67.4724L46.9455 13.4774L51.4209 41.5046C51.4917 42.0031 51.661 42.4825 51.919 42.9148C52.177 43.3472 52.5185 43.7238 52.9236 44.0228C53.3287 44.3217 53.7893 44.537 54.2785 44.656C54.7677 44.7751 55.2757 44.7955 55.7729 44.7161C56.2701 44.6367 56.7465 44.4591 57.1743 44.1936C57.6021 43.9282 57.9727 43.5802 58.2646 43.1699C58.5564 42.7597 58.7637 42.2954 58.8742 41.8042C58.9847 41.313 58.9963 40.8047 58.9083 40.309L52.9895 3.24301C52.8308 2.2502 52.2843 1.36107 51.4702 0.771127C50.656 0.181189 49.6409 -0.0612472 48.6481 0.097143Z" fill="#E8E3DF"/>
</svg>
