<svg width="59" height="70" viewBox="0 0 59 70" fill="none" xmlns="http://www.w3.org/2000/svg">
<path d="M48.192 0.0951899L11.126 6.01396C10.1471 6.18776 9.27565 6.73909 8.69931 7.54919C8.12297 8.35929 7.88787 9.36335 8.04464 10.3451C8.2014 11.3269 8.7375 12.2078 9.53747 12.7981C10.3374 13.3885 11.3373 13.641 12.3216 13.5013L40.3488 9.02586L1.2234 63.0209C0.633347 63.8352 0.390941 64.8505 0.54951 65.8436C0.708078 66.8366 1.25463 67.726 2.06894 68.316C2.88324 68.9061 3.89859 69.1485 4.89163 68.9899C5.88466 68.8313 6.77403 68.2848 7.36408 67.4705L46.4895 13.4755L50.9649 41.5027C51.0356 42.0011 51.2049 42.4805 51.4629 42.9129C51.7209 43.3452 52.0624 43.7219 52.4676 44.0208C52.8727 44.3198 53.3333 44.535 53.8225 44.6541C54.3117 44.7731 54.8197 44.7935 55.3168 44.7142C55.814 44.6348 56.2904 44.4572 56.7182 44.1917C57.146 43.9262 57.5166 43.5782 57.8085 43.168C58.1004 42.7577 58.3076 42.2935 58.4181 41.8023C58.5287 41.3111 58.5402 40.8028 58.4522 40.3071L52.5335 3.24106C52.3748 2.24825 51.8283 1.35911 51.0141 0.769174C50.2 0.179236 49.1849 -0.0632003 48.192 0.0951899Z" fill="#FAF8F5"/>
</svg>
