<svg width="38" height="53" viewBox="0 0 38 53" fill="none" xmlns="http://www.w3.org/2000/svg">
<path d="M20.7083 52.0585L37.3333 35.5055C37.7659 35.0595 38.0053 34.4621 37.9999 33.8421C37.9945 33.2221 37.7447 32.629 37.3044 32.1906C36.864 31.7521 36.2684 31.5034 35.6456 31.498C35.0229 31.4926 34.423 31.731 33.9751 32.1617L21.4042 44.6782L21.4042 3.09226C21.4042 2.46509 21.154 1.86362 20.7086 1.42015C20.2632 0.976677 19.6591 0.727538 19.0292 0.727538C18.3993 0.727538 17.7952 0.976677 17.3498 1.42015C16.9044 1.86362 16.6542 2.46509 16.6542 3.09226L16.6542 44.6782L4.08331 32.1617C3.86422 31.9359 3.60215 31.7557 3.31239 31.6318C3.02264 31.5079 2.71099 31.4426 2.39564 31.4399C2.08028 31.4372 1.76755 31.497 1.47567 31.6159C1.18379 31.7348 0.918616 31.9104 0.69562 32.1324C0.472624 32.3545 0.296271 32.6185 0.176856 32.9091C0.0574365 33.1997 -0.00265265 33.5111 8.6285e-05 33.8251C0.00282904 34.1391 0.0683465 34.4494 0.19282 34.7379C0.31729 35.0264 0.498221 35.2873 0.725054 35.5055L17.3501 52.0585C17.7954 52.5018 18.3994 52.7508 19.0292 52.7508C19.6589 52.7508 20.2629 52.5018 20.7083 52.0585Z" fill="#E8E3DF"/>
</svg>
