<svg width="22" height="16" viewBox="0 0 22 16" fill="none" xmlns="http://www.w3.org/2000/svg">
<path d="M0.799959 7.57938L7.49858 1.03396C7.67904 0.86365 7.92041 0.76977 8.17068 0.772545C8.42096 0.77532 8.66012 0.874528 8.83666 1.0488C9.01319 1.22307 9.11298 1.45846 9.11453 1.70428C9.11608 1.95009 9.01926 2.18666 8.84493 2.36303L3.77982 7.3123L20.5666 7.35516C20.8197 7.35581 21.0623 7.4552 21.2408 7.63147C21.4194 7.80774 21.5194 8.04646 21.5187 8.2951C21.5181 8.54374 21.4169 8.78194 21.2374 8.95729C21.058 9.13265 20.8149 9.2308 20.5618 9.23016L3.77503 9.18729L8.8148 14.1624C8.90575 14.2491 8.97821 14.3527 9.02794 14.4672C9.07768 14.5817 9.10369 14.7048 9.10448 14.8293C9.10526 14.9538 9.08079 15.0772 9.0325 15.1923C8.98421 15.3073 8.91307 15.4118 8.82322 15.4996C8.73337 15.5874 8.62661 15.6568 8.50918 15.7036C8.39175 15.7505 8.266 15.7739 8.13925 15.7724C8.01251 15.771 7.88732 15.7449 7.77099 15.6954C7.65465 15.646 7.54951 15.5743 7.46168 15.4845L0.796574 8.905C0.618072 8.72874 0.518152 8.49007 0.518787 8.24148C0.519422 7.99289 0.620559 7.75473 0.799959 7.57938Z" fill="#636363"/>
</svg>
