<svg width="22" height="16" viewBox="0 0 22 16" fill="none" xmlns="http://www.w3.org/2000/svg">
<path d="M0.855815 7.50882L7.63672 1.04868C7.81933 0.880668 8.06186 0.789851 8.31208 0.795793C8.5623 0.801734 8.80018 0.903959 8.9745 1.08045C9.14882 1.25694 9.24562 1.49358 9.24406 1.73939C9.2425 1.98521 9.14269 2.22053 8.96614 2.39468L3.83881 7.27946L20.6237 7.53473C20.8768 7.53858 21.1181 7.64103 21.2944 7.81955C21.4707 7.99807 21.5676 8.23803 21.5639 8.48664C21.5601 8.73525 21.4559 8.97215 21.2742 9.14522C21.0926 9.31829 20.8483 9.41336 20.5952 9.40951L3.8103 9.15425L8.78672 14.1927C8.87656 14.2805 8.9477 14.3851 8.99598 14.5002C9.04427 14.6153 9.06873 14.7387 9.06793 14.8632C9.06714 14.9877 9.04112 15.1108 8.99137 15.2253C8.94163 15.3397 8.86917 15.4433 8.77821 15.53C8.68726 15.6166 8.57964 15.6846 8.46162 15.7299C8.34361 15.7753 8.21757 15.7971 8.09085 15.7941C7.96414 15.7911 7.83929 15.7633 7.72359 15.7124C7.60789 15.6615 7.50366 15.5885 7.41698 15.4976L0.835657 8.83429C0.6594 8.65578 0.562508 8.41587 0.566288 8.1673C0.570068 7.91874 0.674211 7.68188 0.855815 7.50882Z" fill="#202020"/>
</svg>
