<svg width="17" height="16" viewBox="0 0 17 16" fill="none" xmlns="http://www.w3.org/2000/svg">
<path opacity="0.5" d="M7.22987 0C3.24558 0 0 3.22274 0 7.17903C0 11.1353 3.24558 14.3643 7.22987 14.3643C8.93169 14.3643 10.4968 13.7721 11.7338 12.7888L14.7454 15.7776C14.8973 15.9223 15.1003 16.0021 15.3108 16C15.5213 15.9978 15.7226 15.9139 15.8716 15.7662C16.0206 15.6185 16.1054 15.4188 16.1078 15.2097C16.1103 15.0007 16.0302 14.799 15.8847 14.6479L12.8732 11.6576C13.8642 10.4274 14.4613 8.87082 14.4613 7.17903C14.4613 3.22274 11.2142 0 7.22987 0ZM7.22987 1.59571C10.3457 1.59571 12.8528 4.08513 12.8528 7.17903C12.8528 10.2729 10.3457 12.7686 7.22987 12.7686C4.11406 12.7686 1.60699 10.2729 1.60699 7.17903C1.60699 4.08513 4.11406 1.59571 7.22987 1.59571Z" fill="#636363"/>
</svg>
