<svg width="21" height="16" viewBox="0 0 21 16" fill="none" xmlns="http://www.w3.org/2000/svg">
<path d="M20.7165 7.50882L13.9355 1.04868C13.7529 0.880668 13.5104 0.789851 13.2602 0.795793C13.01 0.801734 12.7721 0.903959 12.5978 1.08045C12.4234 1.25694 12.3266 1.49358 12.3282 1.73939C12.3298 1.98521 12.4296 2.22053 12.6061 2.39468L17.7335 7.27946L0.948592 7.53473C0.695458 7.53858 0.454193 7.64103 0.277873 7.81955C0.101554 7.99807 0.00462278 8.23803 0.0084037 8.48664C0.0121846 8.73525 0.116368 8.97215 0.298034 9.14522C0.479701 9.31829 0.72397 9.41336 0.977104 9.40951L17.762 9.15425L12.7855 14.1927C12.6957 14.2805 12.6246 14.3851 12.5763 14.5002C12.528 14.6153 12.5035 14.7387 12.5043 14.8632C12.5051 14.9877 12.5311 15.1108 12.5809 15.2253C12.6306 15.3397 12.7031 15.4433 12.7941 15.53C12.885 15.6166 12.9926 15.6846 13.1106 15.7299C13.2287 15.7753 13.3547 15.7971 13.4814 15.7941C13.6081 15.7911 13.733 15.7633 13.8487 15.7124C13.9644 15.6615 14.0686 15.5885 14.1553 15.4976L20.7366 8.83429C20.9129 8.65578 21.0098 8.41587 21.006 8.1673C21.0022 7.91874 20.8981 7.68188 20.7165 7.50882Z" fill="#202020"/>
</svg>
